<svg xmlns="http://www.w3.org/2000/svg" fill="none" viewBox="0 0 40 14" class="design-iconfont">
  <g clip-path="url(#c8fgp86i4__clip0_3318_246214)">
    <path d="M10.9489 6.47761C11.4666 5.80082 11.781 4.91322 11.781 3.94056V3.84441C11.781 1.72157 10.285 0 8.43957 0H0V6.18359V7.78497V13.9686H9.66372C11.5092 13.9686 13.0052 12.247 13.0052 10.1242V10.028C13.007 8.42848 12.1582 7.0564 10.9489 6.47761ZM2.57033 1.63096H8.00872C9.09972 1.63096 9.98547 2.64985 9.98547 3.90543C9.98547 4.53414 9.76357 5.10184 9.40668 5.5142C9.04795 5.92471 8.55422 6.1799 8.00872 6.1799H2.57033V1.63096ZM10.1445 11.6959C9.78576 12.1065 9.29204 12.3616 8.74653 12.3616H2.56294V7.81456H8.74653C9.83939 7.81456 10.7233 8.83344 10.7233 10.089C10.7233 10.7159 10.5014 11.2836 10.1445 11.6959Z" fill="#1700AA"/>
    <path d="M27.9038 14L26.4448 12.2951H17.5873L26.7185 0H26.6908H24.5957H14.2237L15.7252 1.66979L22.5856 1.67164L13.3916 14H13.4563H13.4545H27.9038Z" fill="#1700AA"/>
    <path d="M33.1296 12.0417C30.3392 12.0417 28.0758 9.77836 28.0758 6.98798C28.0758 4.19759 30.3392 1.93422 33.1296 1.93422C35.1637 1.93422 36.9167 3.13433 37.7174 4.86699H39.757C38.8601 2.06181 36.2325 0.0314331 33.1296 0.0314331C29.287 0.0314331 26.173 3.14542 26.173 6.98798C26.173 10.8305 29.287 13.9445 33.1296 13.9445C36.0439 13.9445 38.5402 12.1508 39.5758 9.60824H37.4511C36.5653 11.0672 34.9621 12.0417 33.1296 12.0417Z" fill="#FF1F26"/>
  </g>
  <defs>
    <clipPath id="c8fgp86i4__clip0_3318_246214">
      <path fill="#fff" d="M0 0H39.757V14H0z"/>
    </clipPath>
  </defs>
</svg>
